HIERARCHY
ROOT Hips
{
	OFFSET -0.179506 -22.333345 2.821913
	CHANNELS 6 Xposition Yposition Zposition Zrotation Yrotation Xrotation 
	JOINT LeftUpLeg
	{
		OFFSET 6.951974 -9.140623 -0.681533
		CHANNELS 3 Zrotation Yrotation Xrotation
		JOINT LeftLeg
		{
			OFFSET 3.427654 -37.519855 -0.449580
			CHANNELS 3 Zrotation Yrotation Xrotation
			JOINT LeftFoot
			{
				OFFSET -1.359570 -39.796059 -4.369333
				CHANNELS 3 Zrotation Yrotation Xrotation
				JOINT LeftToe
				{
					OFFSET 2.635814 -5.579078 11.928840
					CHANNELS 3 Zrotation Yrotation Xrotation
					End Site
					{
						OFFSET 0.000000 0.000000 0.000000
					}
				}
			}
		}
	}
	JOINT RightUpLeg
	{
		OFFSET -6.767048 -9.052170 -0.431982
		CHANNELS 3 Zrotation Yrotation Xrotation
		JOINT RightLeg
		{
			OFFSET -3.829005 -38.256897 -0.885003
			CHANNELS 3 Zrotation Yrotation Xrotation
			JOINT RightFoot
			{
				OFFSET 1.577377 -39.841461 -4.231180
				CHANNELS 3 Zrotation Yrotation Xrotation
				JOINT RightToe
				{
					OFFSET -2.537174 -4.814398 12.334795
					CHANNELS 3 Zrotation Yrotation Xrotation
					End Site
					{
						OFFSET 0.000000 0.000000 0.000000
					}
				}
			}
		}
	}
	JOINT Spine
	{
		OFFSET -0.253288 10.896323 -2.669631
		CHANNELS 3 Zrotation Yrotation Xrotation
		JOINT Spine1
		{
			OFFSET 0.548704 13.518043 0.109247
			CHANNELS 3 Zrotation Yrotation Xrotation
			JOINT Spine2
			{
				OFFSET 0.145701 5.292222 2.542457
				CHANNELS 3 Zrotation Yrotation Xrotation
				JOINT Neck
				{
					OFFSET -0.277840 21.387037 -4.285703
					CHANNELS 3 Zrotation Yrotation Xrotation
					JOINT Head
					{
						OFFSET 0.515184 6.496960 5.134897
						CHANNELS 3 Zrotation Yrotation Xrotation
						End Site
						{
							OFFSET 0.000000 0.000000 0.000000
						}
					}
				}
				JOINT LeftShoulder
				{
					OFFSET 7.884473 12.174932 -3.408961
					CHANNELS 3 Zrotation Yrotation Xrotation
					JOINT LeftArm
					{
						OFFSET 9.097692 3.046888 -0.886815
						CHANNELS 3 Zrotation Yrotation Xrotation
						JOINT LeftForeArm
						{
							OFFSET 25.961220 -1.277207 -2.745643
							CHANNELS 3 Zrotation Yrotation Xrotation
							JOINT LeftHand
							{
								OFFSET 24.923361 0.898606 -0.117091
								CHANNELS 3 Zrotation Yrotation Xrotation
								End Site
								{
									OFFSET 0.000000 0.000000 0.000000
								}
							}
						}
					}
				}
				JOINT RightShoulder
				{
					OFFSET -8.175920 11.883285 -3.861528
					CHANNELS 3 Zrotation Yrotation Xrotation
					JOINT RightArm
					{
						OFFSET -9.601238 3.255117 -0.914307
						CHANNELS 3 Zrotation Yrotation Xrotation
						JOINT RightForeArm
						{
							OFFSET -25.374195 -1.332924 -2.140099
							CHANNELS 3 Zrotation Yrotation Xrotation
							JOINT RightHand
							{
								OFFSET -25.529810 0.777228 -0.555919
								CHANNELS 3 Zrotation Yrotation Xrotation
								End Site
								{
									OFFSET 0.000000 0.000000 0.000000
								}
							}
						}
					}
				}
			}
		}
	}
}
MOTION
Frames: 17
Frame Time: 0.033333
125.361801 139.709961 96.924034 -56.607927 -0.508369 81.898668 2.465582 -3.484406 -17.157081 -6.027910 5.995445 29.231799 -0.990417 13.105690 -11.764880 nan nan nan 0.252292 -0.425704 11.140815 5.085942 8.516945 2.871626 2.179767 0.291413 -5.182388 nan nan nan 6.725912 5.042524 10.232723 0.328638 -4.576133 15.249674 -1.055765 1.461367 -2.259738 -5.938010 4.986439 5.960492 -0.198149 0.734609 3.299189 -31.659868 -0.813426 3.462177 -54.858863 -4.105599 10.697997 8.953205 -20.293806 0.017013 -9.591981 -16.116019 -1.644354 29.551040 7.918974 6.388422 51.756545 7.401964 8.595065 -17.181435 25.492813 -18.478486 5.289789 14.501092 -9.865392 
124.731354 139.132095 96.829323 -56.701413 -0.439524 81.918658 2.553766 -3.188558 -17.641805 -5.709918 6.146969 27.309123 -1.024176 13.062468 -11.199131 nan nan nan 0.248275 -0.387297 11.853963 5.018506 8.586463 2.580538 2.317836 0.270106 -5.576790 nan nan nan 6.912952 5.173450 10.290084 0.183148 -4.537139 15.207922 -1.092547 1.536039 -2.110166 -5.876772 4.908937 5.922326 -0.172982 0.638305 3.246496 -31.571327 -0.597506 3.512786 -54.891866 -3.778765 10.659121 8.870720 -20.500047 0.491904 -9.514034 -15.980728 -1.670675 29.469588 7.974463 6.419911 51.737247 7.696525 8.584323 -17.183686 25.701803 -18.413162 5.043102 14.397862 -10.012426 
124.094421 138.553238 96.721161 -56.730284 -0.416769 81.937266 2.606231 -2.915303 -18.100637 -5.487666 6.151473 25.335246 -0.953764 12.939107 -10.615126 nan nan nan 0.144244 -0.417750 12.582846 5.004817 8.679697 2.311587 2.443810 0.279149 -5.997947 nan nan nan 6.986966 5.247065 10.288617 0.103780 -4.535801 15.271995 -1.141234 1.694675 -1.993906 -5.866123 4.787314 5.930155 -0.147962 0.495265 3.152049 -31.478113 -0.432114 3.504401 -54.899683 -3.464418 10.643903 8.692894 -20.663464 0.720096 -9.591172 -15.692021 -1.844655 29.337540 8.076794 6.493574 51.789424 8.003103 8.566140 -17.282540 25.834402 -18.571252 4.935481 14.203456 -10.231844 
123.462326 137.994644 96.590431 -56.830391 -0.329874 82.020777 2.753397 -2.593584 -18.616754 -5.256285 6.271470 23.353714 -0.748632 12.887919 -9.983047 nan nan nan 0.150617 -0.310714 13.201931 5.006620 8.763729 2.088820 2.473268 0.298087 -6.334460 nan nan nan 7.123464 5.334901 10.292190 0.038227 -4.437236 15.297037 -1.168645 1.837110 -1.952736 -5.875595 4.669261 5.972798 -0.127722 0.375017 3.149690 -31.484287 -0.258683 3.544680 -54.883269 -3.211117 10.618409 8.616011 -20.672600 0.898560 -10.010852 -15.761095 -1.928232 29.219974 8.149329 6.513985 51.864655 8.185512 8.589550 -17.459791 25.986884 -18.723478 4.786616 14.349156 -10.466565 
122.832481 137.409729 96.462326 -56.940114 -0.305395 82.120523 2.825183 -2.346638 -19.044022 -5.052887 6.394541 21.252597 -0.531433 12.860666 -9.122323 nan nan nan 0.012382 -0.389588 13.842051 5.002366 9.014721 1.824086 2.553971 0.436735 -6.689184 nan nan nan 7.200350 5.477966 10.256011 -0.062218 -4.381800 15.318736 -1.184547 1.943009 -1.875284 -5.853033 4.546478 6.008521 -0.155691 0.439988 3.022618 -31.499558 -0.042807 3.538077 -54.793361 -2.877605 10.611227 8.456397 -20.810004 1.180845 -10.160832 -16.004123 -1.802806 29.170276 8.226890 6.546536 51.808377 8.395851 8.646504 -17.452556 26.161345 -18.857505 4.555084 14.563647 -10.606258 
122.210068 136.794586 96.340385 -57.020328 -0.327539 82.139918 2.744325 -2.115993 -19.369150 -4.751300 6.503386 19.173975 -0.426422 12.758225 -8.103669 nan nan nan -0.271699 -0.679415 14.512237 5.042944 9.360034 1.662627 2.736812 0.600522 -7.100512 nan nan nan 7.276585 5.650134 10.271817 -0.177254 -4.370443 15.384509 -1.211541 2.054040 -1.817396 -5.861943 4.369724 6.137532 -0.117444 0.432915 2.863596 -31.505198 0.079687 3.528841 -54.752137 -2.510156 10.659382 8.394682 -20.945425 1.287880 -9.935580 -16.182293 -1.829947 29.120896 8.352964 6.582620 51.775692 8.594530 8.712897 -17.528746 26.236528 -19.171672 4.224336 14.642156 -10.753690 
121.590134 136.190948 96.190742 -57.086136 -0.302219 82.212114 2.703537 -1.847974 -19.751965 -4.439079 6.655688 17.102921 -0.323225 12.542623 -6.833155 nan nan nan -0.421914 -0.853043 15.058277 5.037708 9.641555 1.569258 2.808220 0.650649 -7.557860 nan nan nan 7.366130 5.773026 10.276690 -0.262316 -4.320540 15.486066 -1.226989 2.191616 -1.888766 -5.954756 4.228059 6.180737 -0.065103 0.331597 2.913783 -31.512496 0.204390 3.548886 -54.799012 -2.129921 10.776727 8.509409 -21.044590 1.334510 -9.594048 -16.209344 -1.760263 29.134128 8.388356 6.607254 51.683918 8.758429 8.753196 -17.658484 26.436934 -19.355966 4.068095 14.606201 -10.718364 
120.961838 135.584610 96.018013 -57.032043 -0.277646 82.362400 2.644975 -1.764045 -20.180753 -4.094047 6.884075 15.008943 -0.190311 12.286312 -5.451416 nan nan nan -0.537759 -0.964061 15.629094 5.012092 9.865181 1.310101 2.814368 0.590771 -7.997840 nan nan nan 7.394776 5.870882 10.218474 -0.360417 -4.310463 15.518473 -1.192117 2.297565 -1.882387 -6.012129 4.175810 6.151447 -0.003599 0.214914 2.906776 -31.507805 0.438279 3.549356 -54.810991 -1.816121 10.749102 8.468270 -21.241158 1.371727 -9.475159 -16.329528 -1.621618 29.151898 8.412286 6.655363 51.559276 9.007952 8.786476 -17.702521 26.670211 -19.422667 3.886214 14.592332 -10.589317 
120.311531 134.991074 95.815018 -56.992126 -0.172551 82.480662 2.703377 -1.689667 -20.580251 -3.751654 7.143647 13.003812 -0.229240 12.063581 -4.198145 nan nan nan -0.516972 -1.122329 16.191737 4.897838 10.008371 1.167409 2.854273 0.612426 -8.431763 nan nan nan 7.485545 5.928823 10.132717 -0.446745 -4.383743 15.539692 -1.183897 2.456436 -1.752362 -5.960567 4.126463 6.206540 0.005295 0.135590 2.698167 -31.473949 0.673606 3.427047 -54.861028 -1.458383 10.668567 8.423509 -21.434518 1.292806 -9.511400 -16.448740 -1.672353 29.091025 8.611044 6.751047 51.512605 9.257532 8.881211 -17.778675 26.847901 -19.584365 3.497349 14.608373 -10.587441 
119.624084 134.394989 95.595421 -57.064336 -0.034086 82.561947 2.848309 -1.438410 -20.833343 -3.546907 7.329716 10.917149 -0.396755 11.782727 -3.095385 nan nan nan -0.445062 -1.188747 16.770142 4.795320 10.110179 1.064382 2.958095 0.674088 -8.841886 nan nan nan 7.590774 6.055553 10.008429 -0.501859 -4.401803 15.645483 -1.186423 2.620624 -1.684523 -5.860831 4.013290 6.425054 -0.007181 0.082213 2.461002 -31.365132 0.858190 3.393956 -55.009398 -1.170615 10.567332 8.503457 -21.469358 1.199139 -9.880605 -16.533884 -1.906215 28.952747 8.807329 6.800172 51.587664 9.465239 8.972695 -17.881775 26.913321 -19.707961 3.468478 14.687450 -10.725623 
118.930199 133.774918 95.384880 -57.149212 0.039866 82.582904 2.872279 -1.117557 -20.931790 -3.379434 7.300754 8.798410 -0.456356 11.482268 -2.099377 nan nan nan -0.492860 -1.198987 17.465028 4.730247 10.208212 0.878271 3.134748 0.750532 -9.217518 nan nan nan 7.631563 6.202617 9.901735 -0.557541 -4.299067 15.748218 -1.136583 2.754119 -1.572214 -5.877169 3.924123 6.577375 -0.003696 0.047596 2.308967 -31.323911 0.908058 3.511212 -55.143756 -1.013402 10.428164 8.524074 -21.402556 1.269611 -9.811320 -16.485663 -2.111919 28.847297 8.907378 6.836435 51.589093 9.663684 9.018777 -17.913259 27.118738 -19.696048 3.303206 14.666389 -10.817168 
118.246765 133.153854 95.178566 -57.256083 0.049219 82.597788 2.859426 -0.888372 -21.013920 -3.222805 7.130259 6.769274 -0.482860 11.229667 -1.426906 nan nan nan -0.647339 -1.260394 18.139492 4.713203 10.412875 0.766727 3.235776 0.799218 -9.665310 nan nan nan 7.613289 6.348418 9.927676 -0.635300 -4.134104 15.730719 -1.111404 2.872621 -1.414916 -5.916401 3.825160 6.504285 0.043501 -0.164265 2.355594 -31.312590 1.050668 3.552773 -55.152384 -0.839321 10.384631 8.486824 -21.475230 1.696438 -9.673938 -16.491056 -2.146770 28.892615 8.930932 6.803896 51.487391 9.888317 9.125735 -17.964307 27.331408 -19.535390 3.200486 14.630196 -10.892458 
117.563423 132.543976 94.967522 -57.301258 0.086584 82.586944 2.913517 -0.769369 -21.093535 -3.068021 7.035279 4.862957 -0.476360 11.077270 -1.033393 nan nan nan -0.735070 -1.353894 18.827915 4.659441 10.669257 0.656111 3.357873 0.790368 -10.134541 nan nan nan 7.597846 6.445165 10.111832 -0.710998 -4.054910 15.613867 -1.068114 3.004215 -1.343861 -5.989307 3.769944 6.564579 0.095923 -0.261550 2.395569 -31.239366 1.212602 3.551149 -55.239169 -0.536513 10.363208 8.475402 -21.600018 1.883856 -9.573752 -16.545128 -2.232204 28.842081 9.031747 6.803165 51.499428 10.094596 9.220260 -17.981970 27.501464 -19.441674 3.009545 14.690656 -10.889228 
116.878357 131.915115 94.741890 -57.394645 0.144705 82.649627 3.040404 -0.666270 -21.241353 -2.942406 6.952011 3.085779 -0.417712 10.995475 -0.889388 nan nan nan -0.839189 -1.472690 19.372592 4.646403 10.902590 0.678537 3.446589 0.784666 -10.641736 nan nan nan 7.598315 6.549652 10.119049 -0.756219 -3.960320 15.717375 -1.077039 3.159952 -1.397003 -6.063027 3.646607 6.689829 0.137956 -0.393315 2.129679 -31.168249 1.344133 3.527260 -55.323480 -0.163999 10.343142 8.493203 -21.831579 1.886060 -9.596713 -16.495129 -2.243407 28.805317 9.150798 6.858224 51.514042 10.322124 9.160181 -17.987790 27.688990 -19.453591 2.825384 14.715280 -10.812007 
116.192696 131.267868 94.489258 -57.511656 0.189787 82.714737 3.181531 -0.496571 -21.439569 -2.897893 6.860869 1.501826 -0.439651 10.917249 -0.888550 nan nan nan -1.006478 -1.664488 19.857726 4.642146 11.148263 0.847871 3.457010 0.857659 -11.285083 nan nan nan 7.599293 6.720415 10.045042 -0.821870 -3.851645 15.851554 -1.051977 3.305742 -1.388241 -6.077167 3.509291 6.794690 0.168612 -0.498510 1.944602 -31.140445 1.426377 3.495641 -55.432445 0.176557 10.264576 8.489520 -22.036988 1.881928 -9.443961 -16.354338 -2.258740 28.768279 9.256487 7.017611 51.478825 10.530149 9.052629 -18.083641 28.013399 -19.499511 2.840318 14.637210 -10.878732 
115.478539 130.625549 94.231705 -57.706629 0.285830 82.751615 3.395000 -0.219111 -21.590187 -2.867848 6.787796 0.049570 -0.409166 10.866313 -0.932435 nan nan nan -1.083643 -1.796665 20.327463 4.604332 11.439884 1.080837 3.506997 0.974792 -11.892334 nan nan nan 7.642486 6.870958 10.077442 -0.867353 -3.745101 15.866849 -1.056619 3.498763 -1.360873 -6.080858 3.397115 6.979593 0.213319 -0.521327 1.740671 -31.168860 1.539608 3.397706 -55.461555 0.541671 10.278412 8.463012 -22.065320 2.075074 -9.308484 -16.303502 -2.087736 28.699519 9.378798 7.058642 51.506274 10.644765 9.083213 -18.106852 28.304144 -19.456356 2.638576 14.745769 -10.845736 
114.758675 129.996811 93.969704 -57.946211 0.357020 82.811568 3.603359 0.024681 -21.791338 -2.749244 6.830903 -1.167843 -0.410772 11.018995 -1.150889 nan nan nan -1.116269 -1.848964 20.751907 4.499682 11.868796 1.298337 3.625595 1.005497 -12.518094 nan nan nan 7.629324 7.056972 10.118587 -0.931723 -3.670110 15.890821 -1.051719 3.673791 -1.312162 -6.049352 3.328511 7.059742 0.197655 -0.509735 1.492492 -31.101242 1.747005 3.227033 -55.514054 0.905222 10.321867 8.337445 -22.204650 2.256515 -9.158016 -16.347532 -2.152921 28.688011 9.563280 7.023410 51.500857 10.816493 9.196165 -18.076846 28.552885 -19.449303 2.322212 14.863762 -10.846572 
